HIERARCHY
ROOT hip
{
	OFFSET 0.000000 0.000000 0.000000 
	CHANNELS 6 Xposition Yposition Zposition Xrotation Zrotation Yrotation
	JOINT abdomen
	{
		OFFSET 0.000000 3.402643 0.000000 
		CHANNELS 3 Xrotation Zrotation Yrotation
		JOINT chest
		{
			OFFSET 0.000000 8.438565 -0.680529 
			CHANNELS 3 Xrotation Zrotation Yrotation
			JOINT neck
			{
				OFFSET 0.000000 10.207942 -0.272212 
				CHANNELS 3 Xrotation Zrotation Yrotation
				JOINT head
				{
					OFFSET 0.000000 3.130431 0.000000 
					CHANNELS 3 Xrotation Zrotation Yrotation
					End Site
					{
						OFFSET 0.000000 3.130435 0.000000 
					}
				}
			}
			JOINT lCollar
			{
				OFFSET 3.470700 6.669187 -0.816635 
				CHANNELS 3 Yrotation Zrotation Xrotation
				JOINT lShldr
				{
					OFFSET 3.198488 0.000000 0.000000 
					CHANNELS 3 Zrotation Yrotation Xrotation
					JOINT lForeArm
					{
						OFFSET 10.139888 0.000000 0.000000 
						CHANNELS 3 Yrotation Zrotation Xrotation
						JOINT lHand
						{
							OFFSET 8.370511 0.000000 0.000000 
							CHANNELS 3 Zrotation Yrotation Xrotation
							End Site
							{
								OFFSET 4.083176 0.000000 0.000000 
							}
						}
					}
				}
			}
			JOINT rCollar
			{
				OFFSET -3.470700 6.669187 -0.816635 
				CHANNELS 3 Yrotation Zrotation Xrotation
				JOINT rShldr
				{
					OFFSET -3.198488 0.000000 0.000000 
					CHANNELS 3 Zrotation Yrotation Xrotation
					JOINT rForeArm
					{
						OFFSET -10.139888 0.000000 0.000000 
						CHANNELS 3 Yrotation Zrotation Xrotation
						JOINT rHand
						{
							OFFSET -8.370511 0.000000 0.000000 
							CHANNELS 3 Zrotation Yrotation Xrotation
							End Site
							{
								OFFSET -4.083176 0.000000 0.000000 
							}
						}
					}
				}
			}
		}
	}
	JOINT lThigh
	{
		OFFSET 5.308129 -1.633274 1.361059 
		CHANNELS 3 Xrotation Zrotation Yrotation
		JOINT lShin
		{
			OFFSET -2.041588 -20.007561 0.000000 
			CHANNELS 3 Xrotation Zrotation Yrotation
			JOINT lFoot
			{
				OFFSET 0.000000 -19.190928 -1.224953 
				CHANNELS 3 Xrotation Yrotation Zrotation
				End Site
				{
					OFFSET 0.000000 -2.449906 4.627600 
				}
			}
		}
	}
	JOINT rThigh
	{
		OFFSET -5.308129 -1.633274 1.361059 
		CHANNELS 3 Xrotation Zrotation Yrotation
		JOINT rShin
		{
			OFFSET 2.041588 -20.007561 0.000000 
			CHANNELS 3 Xrotation Zrotation Yrotation
			JOINT rFoot
			{
				OFFSET 0.000000 -19.190928 -1.224953 
				CHANNELS 3 Xrotation Yrotation Zrotation
				End Site
				{
					OFFSET 0.000000 -2.449906 4.627600 
				}
			}
		}
	}
}
MOTION
Frames: 13
Frame Time: 0.016667
1.708153 52.996586 2.985799 -8.483117 -4.614148 -16.226437 20.426311 6.271561 -6.149284 3.968917 4.645592 -16.999897 2.829374 2.485823 -0.020326 17.015287 8.580146 -42.697365 -27.529146 -8.024354 -0.422628 -65.240669 16.508530 -28.197865 -35.329899 -5.000000 22.482229 -25.721329 8.774975 12.871250 -3.812773 5.893736 -0.313441 50.164490 -37.304298 -30.532425 21.185064 -5.000000 -45.000000 14.613915 -25.553579 -42.350391 24.755468 12.197745 32.641216 8.352700 -3.783025 -0.623079 -12.615065 9.924153 -8.829973 10.612409 -15.528071 15.819857 3.182039 4.967053 0.481177 -3.746140 -15.631892 10.697049 
1.712489 53.007149 2.914057 -8.408683 -4.476806 -16.075798 20.440350 5.910736 -6.127220 3.963600 4.656427 -16.863445 2.804582 3.166662 -0.024141 17.198158 7.731410 -39.231407 -27.412254 -8.063380 -0.426015 -65.411530 16.890381 -28.657663 -34.791725 -5.000000 22.231527 -25.761461 8.462234 11.601880 -3.868849 6.332607 -0.336137 50.899048 -36.594479 -31.100317 20.702436 -5.000000 -45.000000 15.060802 -26.326555 -41.325562 24.669119 12.139779 32.438354 7.991949 -3.862839 -0.611226 -12.345782 9.865771 -8.951871 10.535264 -15.598396 15.545355 3.123613 4.957824 0.495839 -3.689029 -15.524105 10.684786 
1.722392 53.015408 2.841607 -8.341338 -4.348827 -15.916289 20.442888 5.586448 -6.092367 3.950140 4.667571 -16.687202 2.761366 3.837836 -0.027041 17.322674 6.867548 -35.714752 -27.265993 -8.092660 -0.427538 -65.547264 17.187271 -29.012032 -34.271187 -5.000000 21.973679 -25.823481 8.165260 10.433051 -3.924622 6.790981 -0.360976 51.640324 -35.815372 -31.641098 20.373341 -5.000000 -45.000000 15.431062 -27.097822 -40.343338 24.569971 12.081037 32.252010 7.665761 -3.924825 -0.629403 -12.070035 9.886810 -9.013742 10.430197 -15.663108 15.301278 3.073679 4.943078 0.481998 -3.605931 -15.478262 10.657788 
1.737714 53.022053 2.767336 -8.275430 -4.221215 -15.727650 20.474731 5.334245 -5.998775 3.959766 4.661371 -16.354321 2.531489 4.437040 -0.047982 17.335585 6.011317 -31.894228 -26.885359 -8.121975 -0.429079 -65.498367 17.041790 -28.790003 -33.841644 -5.000000 21.699352 -25.965258 7.965916 9.935302 -3.998792 7.385891 -0.391780 52.498295 -34.718887 -32.215763 20.708506 -5.000000 -45.000000 15.415744 -27.695782 -39.591881 24.425137 12.041702 32.012623 7.444203 -3.968095 -0.645101 -11.895674 9.883013 -9.002738 10.426155 -15.723256 15.074542 2.847292 4.885932 0.424405 -3.524907 -15.433352 10.740057 
1.756165 53.027435 2.692085 -8.208667 -4.093318 -15.539078 20.515463 5.115009 -5.882264 3.963759 4.645941 -15.982480 2.271970 5.025125 -0.077839 17.273960 5.167225 -28.033943 -26.465740 -8.161048 -0.431126 -65.422134 16.816744 -28.459808 -33.422489 -5.000000 21.415508 -26.127550 7.778277 9.560820 -4.072485 8.000304 -0.423550 53.367924 -33.558487 -32.777954 21.150301 -5.000000 -45.000000 15.317992 -28.267159 -38.879948 24.262615 11.993030 31.757320 7.228167 -3.978504 -0.610436 -11.717371 9.867965 -9.022304 10.446600 -15.801668 14.822815 2.586250 4.819561 0.402862 -3.459212 -15.373077 10.823442 
1.771245 53.033657 2.615173 -8.145106 -3.966247 -15.291460 20.529100 4.889430 -5.746620 3.943410 4.611470 -15.590380 2.160199 5.605006 -0.095767 17.199419 4.308398 -24.065863 -25.987528 -8.200131 -0.433176 -65.289993 16.428028 -27.905254 -33.065472 -5.000000 21.103771 -26.127533 7.750435 9.936369 -3.941830 8.662769 -0.449627 54.327621 -32.520493 -33.497543 22.179754 -5.000000 -45.000000 15.451740 -28.434999 -38.616394 24.037189 11.993067 31.453424 7.115014 -3.980705 -0.611763 -11.580982 9.851836 -9.016637 10.477479 -15.893736 14.678299 2.304992 4.776810 0.361426 -3.337383 -15.461754 10.928234 
1.784323 53.040516 2.535901 -8.089418 -3.820981 -14.985492 20.534796 4.662901 -5.580981 3.897483 4.567636 -15.178072 2.207295 6.178132 -0.092959 17.098522 3.442050 -19.988703 -25.450874 -8.258726 -0.436237 -65.107422 15.878344 -27.139185 -32.758514 -5.000000 20.741137 -25.996496 7.891007 11.087066 -3.603971 9.364933 -0.485948 55.359859 -31.621935 -34.357967 23.743114 -5.000000 -45.000000 15.794883 -28.203693 -38.761093 23.752954 12.031466 31.127542 7.104208 -3.978557 -0.640204 -11.523166 9.813400 -9.039433 10.514449 -15.967890 14.574433 2.057524 4.740031 0.331439 -3.160874 -15.663786 11.021863 
1.791753 53.046772 2.464670 -8.029666 -3.684624 -14.679610 20.530043 4.451090 -5.398557 3.851081 4.523594 -14.766551 2.255293 6.751245 -0.091282 16.939184 2.582624 -15.924621 -24.912857 -8.311687 -0.430030 -64.938538 15.331059 -26.376492 -32.434071 -5.000000 20.394587 -25.869738 8.029340 12.238462 -3.265729 10.057342 -0.523397 56.377495 -30.706440 -35.207542 25.207907 -5.000000 -44.137589 16.139738 -27.958719 -38.921967 23.455362 12.031776 30.789082 7.071141 -3.937340 -0.636262 -11.451157 9.823975 -9.026919 10.573955 -16.048794 14.489145 1.797290 4.698846 0.311425 -3.050114 -15.858654 11.100823 
1.789496 53.051365 2.411624 -8.131354 -3.559547 -14.227638 20.500370 4.159535 -5.194466 3.782649 4.393157 -14.246223 2.813421 7.404986 -0.010070 16.876150 1.869868 -12.340381 -24.845867 -8.317334 -0.439302 -64.882835 15.056196 -25.877106 -32.549103 -5.000000 19.990530 -25.406200 8.224430 13.927845 -2.566467 10.671729 -0.556962 57.413170 -30.108963 -36.134525 27.188793 -5.000000 -39.848076 17.005697 -27.721582 -38.791756 23.289385 12.109433 30.300976 7.125694 -3.940644 -0.620467 -11.464289 9.810224 -8.990047 10.846296 -16.105015 14.303172 1.580320 4.673507 0.303538 -2.904601 -16.125626 11.112642 
1.780828 53.055355 2.367574 -8.221823 -3.433866 -13.765968 20.459749 3.882738 -4.974302 3.710384 4.271834 -13.746177 3.375822 8.060104 0.079499 16.761892 1.177507 -8.761516 -24.777508 -8.317345 -0.439307 -64.831306 14.794381 -25.379620 -32.661274 -5.000000 19.604832 -24.941275 8.400913 15.629596 -1.876600 11.286113 -0.588756 58.426785 -29.500725 -37.032475 29.035950 -5.000000 -35.671455 17.869707 -27.474495 -38.662170 23.138916 12.217411 29.812901 7.138882 -3.977995 -0.613758 -11.457307 9.743661 -8.957091 11.110857 -16.165693 14.107480 1.367805 4.679262 0.277626 -2.781290 -16.367046 11.112666 
1.767237 53.059704 2.325558 -8.329204 -3.327384 -13.236125 20.433361 3.664371 -4.774261 3.696805 4.140500 -13.245446 3.809721 8.614256 0.156356 16.623554 0.486075 -5.449354 -24.668789 -8.321437 -0.430533 -64.730957 14.504364 -24.897169 -32.903549 -5.000000 19.253437 -24.536480 8.441865 16.820751 -1.245385 11.861485 -0.620477 59.150444 -28.714659 -37.545010 30.839544 -5.000000 -31.565763 18.550045 -27.105204 -37.817993 22.963898 12.324169 29.312231 7.197200 -3.931602 -0.634782 -11.321475 9.750162 -8.951200 11.402924 -16.193222 13.794503 1.200358 4.674800 0.263789 -2.678190 -16.604185 11.120559 
1.747862 53.064312 2.286508 -8.457918 -3.220987 -12.637530 20.431356 3.510266 -4.581165 3.741063 3.999037 -12.754521 4.102573 9.066034 0.208216 16.463200 -0.195144 -2.382832 -24.522230 -8.311686 -0.430030 -64.582420 14.197957 -24.432707 -33.288113 -5.000000 18.944521 -24.180929 8.345831 17.505583 -0.682425 12.417352 -0.651318 59.607067 -27.755138 -37.678947 32.604851 -5.000000 -27.506420 19.067024 -26.633936 -36.262337 22.791670 12.480766 28.745316 7.248646 -3.899953 -0.598569 -11.026949 9.629465 -8.995280 11.726368 -16.195793 13.354402 1.092512 4.711630 0.284286 -2.622407 -16.805513 11.098135 
1.724089 53.069500 2.250343 -8.571009 -3.132922 -12.030325 20.427792 3.377708 -4.390924 3.764212 3.857218 -12.264330 4.396632 9.488804 0.264465 16.290039 -0.859330 0.585872 -24.367355 -8.317410 -0.439336 -64.418472 13.911042 -23.969212 -33.679108 -5.000000 18.635191 -23.857477 8.223078 18.036491 -0.100096 12.934205 -0.678072 59.984222 -26.788900 -37.706367 34.202900 -5.000000 -23.649996 19.530596 -26.159941 -34.552704 22.612267 12.627014 28.215504 7.286185 -3.850461 -0.589379 -10.763205 9.530815 -9.004337 12.039031 -16.165916 12.899827 1.015122 4.719042 0.278039 -2.630486 -16.994339 11.083053 
